# xmcd
# Track frame offsets:
# 150
# 9367
# 24692
# 38127
# 51352
# 66172
# 81385
# 92820
# 105295
# 116315
# 128207
# 138975
# 150410
#
# Disc length: 2242 seconds
# Revision: 0
# Processed by: cddbd v1.4PL0 Copyright (c) Steve Scherf et al.
# Submitted via: VisiTrax 2.9.5.180 - For more info visit www.synapsa.com
#
DISCID=9f08c00d
DTITLE=Bo Young - Young And Innocent
DYEAR=1900
DGENRE=Country
TTITLE0=A little Left Over
TTITLE1=Ain`t That Lonely Yet
TTITLE2=What`s A man To Do
TTITLE3=Love Don`t Feel Like A Ball And Chain To Me
TTITLE4=Fast As You
TTITLE5=What`sShe Doing Now
TTITLE6=She`s Got The Rhythm-I`ve Got The Blues
TTITLE7=There Goes My Heart Again
TTITLE8=Take Your Memory With You
TTITLE9=Try Not To Look So Pretty
TTITLE10=I Quit
TTITLE11=Lisa Jane
TTITLE12=If I Didn`t Have You In My World
EXTD=
EXTT0=
EXTT1=
EXTT2=
EXTT3=
EXTT4=
EXTT5=
EXTT6=
EXTT7=
EXTT8=
EXTT9=
EXTT10=
EXTT11=
EXTT12=
PLAYORDER=
